<svg xmlns="http://www.w3.org/2000/svg" width="164.493" height="64" viewBox="0 0 164.493 64">
  <g id="Group_6" data-name="Group 6" transform="translate(-142 -713)">
    <g id="Group_3" data-name="Group 3" transform="translate(-14 33)">
      <g id="Group_2" data-name="Group 2" transform="translate(40 10)">
        <text id="BLOOZ" transform="translate(190 715)" fill="#4bc9f1" font-size="50" font-family="ForteMT, Forte"><tspan x="-73.376" y="0">BLOOZ</tspan></text>
        <text id="BLOOZ-2" data-name="BLOOZ" transform="translate(190 718)" fill="#4bc9f1" font-size="50" font-family="ForteMT, Forte"><tspan x="-73.376" y="0">BLOOZ</tspan></text>
      </g>
      <g id="Group_4" data-name="Group 4">
        <g id="Group_1" data-name="Group 1" transform="translate(43 10)">
          <text id="BLOOZ-3" data-name="BLOOZ" transform="translate(190 715)" fill="#45e3cd" stroke="#114cc4" stroke-width="1" font-size="50" font-family="ForteMT, Forte"><tspan x="-73.376" y="0">BLOOZ</tspan></text>
        </g>
        <text id="Hotel_and_suites" data-name="Hotel and suites" transform="translate(230 741)" fill="#100108" font-size="15" font-family="ForteMT, Forte"><tspan x="-53.514" y="0">Hotel and suites</tspan></text>
      </g>
    </g>
    <g id="Group_5" data-name="Group 5" transform="translate(11 16)">
      <path id="Path_4" data-name="Path 4" d="M294.819,710.11c8.129-8.129,9-7.694,10.162-4.21S294.819,710.11,294.819,710.11Z" transform="translate(-9.571 -2.118)" fill="#f72586"/>
      <path id="Path_5" data-name="Path 5" d="M300.19,721.828c8.42.871,7.258,8.42,4.79,8.42s-1.016-4.645-2.323-5.807A24.553,24.553,0,0,1,300.19,721.828Z" transform="translate(-14.275 -12)" fill="#f72586"/>
      <path id="Path_6" data-name="Path 6" d="M0,8.42C8.42,7.549,7.258,0,4.79,0S3.774,4.645,2.468,5.807A24.554,24.554,0,0,0,0,8.42Z" transform="matrix(0.454, -0.891, 0.891, 0.454, 276.181, 703.39)" fill="#f72586"/>
    </g>
  </g>
</svg>
