<svg xmlns="http://www.w3.org/2000/svg" width="106.136" height="71.69" viewBox="0 0 106.136 71.69">
  <g id="Group_7" data-name="Group 7" transform="translate(-1384.039 -919.083)">
    <path id="Path_7" data-name="Path 7" d="M1385.295,983.877l19.667-37.318-19.667-10.59,9.077-3.026,18.155,10.59-20.172,40.344Z" fill="#04509c" stroke="#00509a" stroke-width="1"/>
    <path id="Path_8" data-name="Path 8" d="M1398.911,929.917l5.547-4.034,21.685,12.1-21.685,44.882h-6.724l20.237-40.271Z" fill="#04509c" stroke="#00509a" stroke-width="1"/>
    <path id="Path_9" data-name="Path 9" d="M1407.546,923.842l6.863-4.178,25.065,14.622L1414.41,983.82h-6.863l24.767-45.655Z" fill="#04509c" stroke="#00509a" stroke-width="1"/>
    <path id="Path_10" data-name="Path 10" d="M1435.3,954.376l8.952,27.654-7.758,8.057s4.774-10.444-6.863-9.549-8.057,0-8.057,0l5.371-9.847h4.476l-1.79-7.46Z" fill="#0e844d" stroke="#11844b" stroke-width="1"/>
    <path id="Path_11" data-name="Path 11" d="M1439.475,948.013l9.25,33.719s6.266-4.178,7.162-4.476-2.089-5.371-2.089-5.371,4.476-3.282,5.968,0,9.847,14.92,9.847,14.92,12.831,7.758,16.71,0,3.282-9.549,3.282-9.549l-6.565,3.282c-1.641.821-11.339-16.71-11.339-16.71s-5.371-7.758-13.13-2.387-4.774,2.387-4.774,2.387l-9.549-28.945Z" fill="#118349" stroke="#0c8349" stroke-width="1"/>
  </g>
</svg>
